<?xml version="1.0" encoding="utf-8"?>
<!-- Generator: Adobe Illustrator 18.0.0, SVG Export Plug-In . SVG Version: 6.00 Build 0)  -->
<!DOCTYPE svg PUBLIC "-//W3C//DTD SVG 1.1//EN" "http://www.w3.org/Graphics/SVG/1.1/DTD/svg11.dtd">
<svg version="1.1" xmlns="http://www.w3.org/2000/svg" xmlns:xlink="http://www.w3.org/1999/xlink" x="0px" y="0px"
	 viewBox="0.0000003 116.9590912 233 106" enable-background="new 0.0000003 116.9590912 233 106" xml:space="preserve">
<g id="Слой_1">
	<title>Asset 1</title>
	
		<linearGradient id="Artwork_1_2_" gradientUnits="userSpaceOnUse" x1="-24.9248695" y1="139.4487" x2="268.8355408" y2="144.0149231">
		<stop  offset="0" style="stop-color:#6FC612"/>
		<stop  offset="1" style="stop-color:#00E1BE"/>
	</linearGradient>
	<path id="Artwork_1" fill="url(#Artwork_1_2_)" d="M117.9542084,136.0605774
		c0.2685394-0.2631226,0.6369324-0.4091187,1.0198441-0.4042053c0.7878342-0.0033875,1.4293518,0.6094208,1.4328766,1.3687439
		c0.0000153,0.0040894,0.0000153,0.0081787,0,0.0122833v8.7729645c0.0035172,0.7593231-0.6323013,1.3776245-1.4201355,1.381012
		c-0.0042496,0.0000153-0.0084915,0.0000153-0.0127411,0c-0.3829117,0.0049286-0.7513046-0.1410828-1.0198441-0.4042053
		c-0.2772369-0.2539978-0.4316025-0.6081848-0.4257278-0.9768066v-8.7729645
		C117.5226059,136.6687622,117.6769714,136.3145752,117.9542084,136.0605774z M106.5166626,135.9258423v5.1290436h1.5123062
		c0.3834839,0.0061493,0.7521515-0.1426392,1.0166702-0.4103241c0.2726364-0.2600708,0.4230194-0.616333,0.4161987-0.9859924
		v-2.3394623c0-0.928833-0.477623-1.3932648-1.432869-1.3932648H106.5166626z M95.4985046,135.9258423v11.1767273h1.5122986
		c0.3819351,0.0057983,0.7483063-0.1456909,1.0071411-0.4164429c0.2676544-0.2615356,0.4152908-0.6156158,0.4098434-0.9829407
		v-8.3963318c0.006813-0.3696594-0.1435699-0.7259064-0.4161987-0.9859924
		c-0.2592697-0.2683563-0.6235275-0.4194641-1.0039673-0.4164581L95.4985046,135.9258423z M72.6551895,143.4433441h1.8586044
		l-0.9054718-6.3140869L72.6551895,143.4433441z M134.360733,135.9044037v11.1767273h1.5186462
		c0.3819427,0.0058136,0.7483063-0.1456757,1.0071411-0.4164429c0.2610321-0.2567596,0.4070587-0.6020203,0.4066772-0.9615021
		v-8.3963318c0.0059814-0.3701019-0.1455688-0.7264252-0.4193878-0.9859924
		c-0.2570038-0.2660065-0.6173096-0.4168854-0.9944305-0.4164581H134.360733z M69.0587158,149.478775h2.6115723l0.6100006-3.6745453
		h2.6179276l0.5877686,3.6745453h2.6369858l-2.7894897-16.0240631h-3.4503174L69.0587158,149.478775z M104.0067596,149.478775
		h2.5067368v-6.0354309h1.6711502l1.5186539,6.0354309h2.7132416l-1.8586121-6.9938812
		c0.8649216-0.7223358,1.3554459-1.7754364,1.3407364-2.8783875v-2.3241425c0-1.1595154-0.2869949-2.062851-0.8609924-2.7099762
		c-0.65448-0.7451172-1.680687-1.1176758-3.0786057-1.1176758h-3.9523087V149.478775z M126.1733475,149.478775h2.5067368
		v-16.0240631h-2.5067368V149.478775z M87.3047714,144.2211151l-3.326416-10.7664032h-2.8149033v16.0363159h2.5067291v-10.2795258
		l3.450325,10.2672729h2.6910019v-16.0240631h-2.5067368V144.2211151z M92.9886017,149.478775h3.9395905
		c1.0510559,0.0147247,2.0608673-0.3936768,2.7863083-1.1268616c0.7530289-0.7131348,1.1698685-1.6925964,1.1532898-2.7099762
		v-8.3748779c0.0151367-1.0123138-0.3991318-1.9867249-1.1469269-2.6977386
		c-0.7289352-0.7305603-1.7412567-1.1345978-2.7926712-1.1146088h-3.9395905V149.478775z M131.8540039,149.478775h3.9396057
		c1.0510559,0.0147247,2.0608521-0.3936768,2.7863007-1.1268616c0.7530365-0.7131348,1.1698761-1.6925964,1.1532898-2.7099762
		v-8.3748779c0.0151367-1.0123138-0.3991394-1.9867249-1.1469269-2.6977386
		c-0.728714-0.7308807-1.7411804-1.1349792-2.7926636-1.1146088h-3.9396057V149.478775z M116.2290573,148.5601349
		c0.7347107,0.7346039,1.7532501,1.1416931,2.8117218,1.1238098c2.1950836,0.0033722,3.9773865-1.7089386,3.980896-3.824585
		c0.0000153-0.0040894,0.0000153-0.0081635,0-0.0122528v-8.7576599c0.0877609-2.1139526-1.6191559-3.8962097-3.8124847-3.9807739
		c-2.1933136-0.0845795-4.0424957,1.5605469-4.130249,3.6744995c-0.0042343,0.1020508-0.0042343,0.2042236,0,0.3062744v8.7454071
		c-0.0169525,1.0174561,0.3999405,1.9970398,1.1532898,2.7099762L116.2290573,148.5601349z M143.5044098,130.9590912
		c1.2791443,0,2.3161011,0.9994202,2.3161011,2.2322845l0,0v16.5354309c0,1.2328491-1.0369568,2.2322845-2.3161011,2.2322845l0,0
		H65.3161011c-1.2791519,0-2.3161011-0.9994354-2.3161011-2.2322845v-16.5354309
		c0-1.2328491,1.0369492-2.2322845,2.3161011-2.2322845H143.5044098z"/>
	
		<linearGradient id="SVGID_1_" gradientUnits="userSpaceOnUse" x1="-24.9413128" y1="137.9404907" x2="268.8870239" y2="142.5077667">
		<stop  offset="0" style="stop-color:#6FC612"/>
		<stop  offset="1" style="stop-color:#00E1BE"/>
	</linearGradient>
	<path fill="url(#SVGID_1_)" d="M154.7513275,143.2963562h1.855423l-0.9277191-6.3140869L154.7513275,143.2963562z
		 M157.4169159,133.310791l2.7863007,16.0179443h-2.6369781l-0.5877686-3.6745453h-2.6179199l-0.6100159,3.6745453h-2.6210938
		l2.8244324-16.0179443H157.4169159z M166.8846436,133.310791v12.3617706
		c0.0035248,0.7593231-0.6322937,1.3776245-1.4201202,1.381012c-0.0042572,0.0000305-0.0084991,0.0000305-0.0127411,0
		c-0.3824463,0.0057373-0.7507629-0.1391296-1.0198517-0.401123c-0.2772369-0.2540131-0.4315948-0.6082001-0.4257202-0.9768219
		V133.310791h-2.4527283v12.392395c-0.0070648,2.0970306,1.7510223,3.8025208,3.9267883,3.8093262
		c0.0127411,0.0000458,0.0254974,0.0000305,0.0382385-0.0000458c1.0532227,0.0166931,2.068222-0.3801422,2.8117218-1.0993042
		c0.7669525-0.7052155,1.1912079-1.6885529,1.1691742-2.7099762v-12.392395H166.8846436z M171.1260681,133.310791v2.4282684
		h2.6655884v13.5896759h2.5067444v-13.5896759h2.6528625v-2.4282684H171.1260681z M186.1251526,133.310791v6.8009644h-3.0246124
		v-6.8009644h-2.5067291v16.0179443h2.5067291v-6.7887115h3.0246124v6.7887115h2.4940033V133.310791H186.1251526z
		 M193.3530426,146.6371307c0.2688751,0.2622986,0.6373291,0.4072266,1.0198517,0.4011383
		c0.7878418,0.0033875,1.4293671-0.6094055,1.4328766-1.3687439c0.0000153-0.0040894,0.0000153-0.0081787,0-0.0122681v-8.7668457
		c0.0035095-0.7593231-0.632309-1.3776245-1.4201355-1.381012c-0.0042419-0.0000153-0.0084991-0.0000153-0.0127411,0
		c-0.3815155-0.0073547-0.7497101,0.1352539-1.0198517,0.3950043c-0.2772369,0.2540131-0.4316254,0.6082001-0.4257507,0.9768219
		v8.7790833C192.9214172,146.0289459,193.0758057,146.3831329,193.3530426,146.6371307z M191.6405792,134.2233124
		c1.5524597-1.4933014,4.0669861-1.4908905,5.6163635,0.0053864c0.744812,0.7192841,1.162262,1.6945038,1.1603851,2.7107086
		v8.7454071c0,2.1139526-1.7780457,3.827652-3.9713745,3.827652s-3.9713593-1.7136993-3.9713593-3.827652v-8.7423401
		c-0.02034-1.0222931,0.4021759-2.0065155,1.1659851-2.7161102V134.2233124z M202.7604065,140.9017792h1.5122986
		c0.3847961,0.0098419,0.7561188-0.1368561,1.0230255-0.4041901c0.2718201-0.2593384,0.4221497-0.6143341,0.4161987-0.9829407
		v-2.342514c0-0.9288483-0.4776306-1.3932648-1.4328766-1.3932648h-1.5122986L202.7604065,140.9017792z M204.2059937,133.3077393
		c1.3979034,0,2.4230499,0.3705139,3.0754242,1.1115417c0.5740051,0.6471252,0.8609924,1.5504608,0.8609924,2.7099762v2.3272095
		c0.0183258,1.101059-0.4674683,2.154007-1.3280182,2.8783875l1.855423,6.9938812h-2.7100677l-1.5186615-6.0323792h-1.6711578
		v6.0323792h-2.5067291V133.310791L204.2059937,133.3077393z M210.436264,149.3256683h2.5067291V133.310791h-2.4971924
		L210.436264,149.3256683z M214.585556,133.3077393v2.4282532h2.6655884v13.5896759h2.50354v-13.5866089h2.6528778v-2.4282684
		L214.585556,133.3077393z M230.220047,133.3077393l-1.8427124,5.7537079l-1.8554382-5.7537079h-2.7577209l3.3613739,9.3088379
		v6.7121582h2.5067444v-6.7121582L233,133.2985535L230.220047,133.3077393z"/>
	
		<linearGradient id="SVGID_2_" gradientUnits="userSpaceOnUse" x1="-28.7435379" y1="133.0407104" x2="257.4955139" y2="137.4900208">
		<stop  offset="0" style="stop-color:#6FC612"/>
		<stop  offset="1" style="stop-color:#00E1BE"/>
	</linearGradient>
	<path fill="url(#SVGID_2_)" d="M38.0732765,139.6668701c-0.5498428,0.2468414-1.1581154,0.3337402-1.755085,0.2507172
		c-1.4672127-0.2507172-3.6711273-3.5101624-3.3430176-5.2621613c0.2321548-1.2381592,2.4453545-1.2381592,2.4453545-1.2381592
		c-1.1868668-1.8438873-2.8868027-3.3006744-4.8907127-4.1911469l0.8667088-3.3430176l-0.2383423-0.15168l-1.7519913,3.0489578
		c-1.5698929-0.5307312-3.2218971-0.7770691-4.878334-0.727417c-0.9379425,0.018692-1.8714733,0.1338348-2.7858486,0.3435974
		l-3.141819-3.9311523l0,0l-0.2476311,0.2414398l1.8417549,4.1478271c-5.0795307,1.878891-7.9056206,6.76651-7.9180021,11.7160339
		c9.9052439-1.8757935,23.3423271,1.3279266,26.0012665,2.822998
		C38.417141,142.1487122,38.3480949,140.8891449,38.0732765,139.6668701z M24.8807316,138.9611206
		c-3.646368-0.4240723-4.0518646-2.7487183-4.0240059-3.9156647c0.0619068-2.8972931,1.7736588-3.1975403,3.6277962-3.2006378
		c2.3308277,0,5.5221748,0.585022,6.3672142,2.2720184C31.7401142,135.9028778,27.6511059,139.2861328,24.8807316,138.9611206z"/>
	
		<linearGradient id="SVGID_3_" gradientUnits="userSpaceOnUse" x1="-28.7435379" y1="133.0407104" x2="257.4955139" y2="137.4900208">
		<stop  offset="0" style="stop-color:#6FC612"/>
		<stop  offset="1" style="stop-color:#00E1BE"/>
	</linearGradient>
	<path fill="url(#SVGID_3_)" d="M38.0732765,139.6668701c-0.5498428,0.2468414-1.1581154,0.3337402-1.755085,0.2507172
		c-1.4672127-0.2507172-3.6711273-3.5101624-3.3430176-5.2621613c0.2321548-1.2381592,2.4453545-1.2381592,2.4453545-1.2381592
		c-1.1868668-1.8438873-2.8868027-3.3006744-4.8907127-4.1911469l0.8667088-3.3430176l-0.2383423-0.15168l-1.7519913,3.0489578
		c-1.5698929-0.5307312-3.2218971-0.7770691-4.878334-0.727417c-0.9379425,0.018692-1.8714733,0.1338348-2.7858486,0.3435974
		l-3.141819-3.9311523l0,0l-0.2476311,0.2414398l1.8417549,4.1478271c-5.0795307,1.878891-7.9056206,6.76651-7.9180021,11.7160339
		c9.9052439-1.8757935,23.3423271,1.3279266,26.0012665,2.822998
		C38.417141,142.1487122,38.3480949,140.8891449,38.0732765,139.6668701z M24.8807316,138.9611206
		c-3.646368-0.4240723-4.0518646-2.7487183-4.0240059-3.9156647c0.0619068-2.8972931,1.7736588-3.1975403,3.6277962-3.2006378
		c2.3308277,0,5.5221748,0.585022,6.3672142,2.2720184C31.7401142,135.9028778,27.6511059,139.2861328,24.8807316,138.9611206z"/>
	
		<linearGradient id="SVGID_4_" gradientUnits="userSpaceOnUse" x1="-28.7435379" y1="133.0407104" x2="257.4955139" y2="137.4900208">
		<stop  offset="0" style="stop-color:#6FC612"/>
		<stop  offset="1" style="stop-color:#00E1BE"/>
	</linearGradient>
	<path fill="url(#SVGID_4_)" d="M38.0732765,139.6668701c-0.5498428,0.2468414-1.1581154,0.3337402-1.755085,0.2507172
		c-1.4672127-0.2507172-3.6711273-3.5101624-3.3430176-5.2621613c0.2321548-1.2381592,2.4453545-1.2381592,2.4453545-1.2381592
		c-1.1868668-1.8438873-2.8868027-3.3006744-4.8907127-4.1911469l0.8667088-3.3430176l-0.2383423-0.15168l-1.7519913,3.0489578
		c-1.5698929-0.5307312-3.2218971-0.7770691-4.878334-0.727417c-0.9379425,0.018692-1.8714733,0.1338348-2.7858486,0.3435974
		l-3.141819-3.9311523l0,0l-0.2476311,0.2414398l1.8417549,4.1478271c-5.0795307,1.878891-7.9056206,6.76651-7.9180021,11.7160339
		c9.9052439-1.8757935,23.3423271,1.3279266,26.0012665,2.822998
		C38.417141,142.1487122,38.3480949,140.8891449,38.0732765,139.6668701z M24.8807316,138.9611206
		c-3.646368-0.4240723-4.0518646-2.7487183-4.0240059-3.9156647c0.0619068-2.8972931,1.7736588-3.1975403,3.6277962-3.2006378
		c2.3308277,0,5.5221748,0.585022,6.3672142,2.2720184C31.7401142,135.9028778,27.6511059,139.2861328,24.8807316,138.9611206z"/>
	<linearGradient id="SVGID_5_" gradientUnits="userSpaceOnUse" x1="-28.8615017" y1="140.6296387" x2="257.377533" y2="145.078949">
		<stop  offset="0" style="stop-color:#6FC612"/>
		<stop  offset="1" style="stop-color:#00E1BE"/>
	</linearGradient>
	<path fill="url(#SVGID_5_)" d="M24.5,165.9590912c-13.5309753,0-24.5-10.9690247-24.5-24.5s10.9690247-24.5,24.5-24.5
		s24.5,10.9690247,24.5,24.5c0,0.0010376,0,0.0020599,0,0.0030975C48.984642,154.9862976,38.0241089,165.9454498,24.5,165.9590912z
		 M14.0437784,161.0993347c0.4085913,0.2197723,0.8233728,0.424057,1.2381554,0.6190796l0.0897665,0.043335l0.2012005,0.0897675
		l0.1981049,0.0866699l0.1733418,0.0742798l0.0959587-0.0216675c2.3866825-0.5098267,4.8025951-0.8716431,7.233923-1.0833893
		l0.4952621-0.0402374c1.6374607-0.1331024,3.3058739-0.2042999,4.9526215-0.2104797h0.4890709
		c1.129818,0,2.2596359,0.0309601,3.3615932,0.0866699c0.3559685,0,0.7119408,0.0371399,1.071003,0.0588074
		c0.5200272,0.0340576,1.043148,0.0711975,1.5662651,0.11763h0.0742912l0.0711937-0.0278625
		c0.0269089-0.0111542,0.0527992-0.0246124,0.0773849-0.0402374c0.1609573-0.0897675,0.3095398-0.18573,0.4797859-0.2785797
		c0.1702461-0.092865,0.3497772-0.2104797,0.5200272-0.3095398c0.1702461-0.0990601,0.3807335-0.2476349,0.5695496-0.3745422
		l0.1331024-0.0897675l0.7150307-0.4766846l-0.8543282-0.0897675c-1.2381554-0.1300049-2.4948807-0.2321472-3.7454185-0.3095398
		c-1.2505379-0.0773773-2.5444088-0.1114349-3.8166142-0.1145325h-0.4921684c-1.6838913,0-3.364687,0.0681-5.0021477,0.1950226
		c-0.4766903,0.0340424-0.9564743,0.0742798-1.4300709,0.1207123c-0.1176243,0-0.2383442,0.0216675-0.3559704,0.0371399
		c-2.5837059,0.2619629-5.1478653,0.6900177-7.6765623,1.2814941c0.1300058-0.7181244-0.0247641-1.8572388-1.0586233-3.6804199
		l2.2534418-0.6190796l0.1176252-0.0619049c0.5738029-0.323288,1.0513268-0.793335,1.3836384-1.361969
		c0.4828815-0.7800293,1.0029068-2.1667633,0.7367039-4.2592468c-0.2042961-1.6529388-0.6655102-2.9530029-1.3681622-3.8661499
		c-0.5788393-0.8324127-1.5157061-1.3438416-2.5289316-1.3805389c-0.1034393,0.0005646-0.2067728,0.0067596-0.3095388,0.0185699
		c-0.1650867,0.0206299-0.3291416,0.043335-0.4921665,0.0681c0-0.0557098,0-0.1145325,0-0.1702423
		c2.3184462-0.5757446,5.4540749-0.8914795,8.8620968-0.8914795c5.7171841,0,11.4746075,0.869812,15.8298168,2.3865509
		c0.6678963,3.5728455,1.1226883,7.182251,1.3619728,10.8090973l0.043335,0.6500244l0.4766884-0.4457245
		c0.349781-0.328125,0.6933708-0.6748047,1.018383-1.0276794l0.0897636-0.0990448v-0.1331024
		c-0.1857262-2.4113159-0.4550247-4.7792816-0.7986107-7.0420074c1.1756744,0.4755707,2.2856293,1.0997314,3.3027763,1.8572235
		c0.1826286,0.1331024,0.3559685,0.2631073,0.5169296,0.3931122l0.3095398,0.23526l0.1702461-0.3404999
		c1.5640602-3.1071625,2.3682098-6.5412292,2.3463097-10.0197754c0.0089645-12.2881317-9.9452744-22.2569122-22.2334118-22.2658768
		S2.2500396,129.1415863,2.2410748,141.429718c-0.0024252,3.324295,0.7400811,6.6068726,2.1729491,9.6065063l0.167151,0.3528748
		l0.3095388-0.2445374c1.6900821-1.3588715,5.110487-3.7144623,9.013772-4.178772h0.1083384
		c0.8109913,0,1.8758059,0.9719543,2.2162981,3.7144623c0.3466835,2.7858582-0.9595699,3.6773224-1.1607714,3.7980499
		l-2.996336,0.8202667c-0.5262165-0.4147797-1.5476942-1.1576691-1.9810486-1.1576691h-0.0433359l-0.5850277,0.04953
		l0.3714466,0.4550171c3.3027802,4.0487671,2.9870491,5.4262238,2.9715738,5.4819336l-0.0588121,0.2228699l0.1981049,0.1207275
		c0.3373976,0.2042999,0.6469364,0.3838196,0.9440928,0.5447845l0.03405,0.0185699l0.0835752,0.0402374L14.0437784,161.0993347z"/>
</g>
<g id="Слой_2">
	<path id="Artwork_1_1_" fill="#FFFFFF" d="M117.9542084,193.0605774c0.2685394-0.2631226,0.6369324-0.4091187,1.0198441-0.4042053
		c0.7878342-0.0033875,1.4293518,0.6094208,1.4328766,1.3687439c0.0000153,0.0040894,0.0000153,0.0081787,0,0.0122833v8.7729645
		c0.0035172,0.7593231-0.6323013,1.3776245-1.4201355,1.381012c-0.0042496,0.0000153-0.0084915,0.0000153-0.0127411,0
		c-0.3829117,0.0049286-0.7513046-0.1410828-1.0198441-0.4042053c-0.2772369-0.2539978-0.4316025-0.6081848-0.4257278-0.9768066
		v-8.7729645C117.5226059,193.6687622,117.6769714,193.3145752,117.9542084,193.0605774z M106.5166626,192.9258423v5.1290436
		h1.5123062c0.3834839,0.0061493,0.7521515-0.1426392,1.0166702-0.4103241
		c0.2726364-0.2600708,0.4230194-0.616333,0.4161987-0.9859924v-2.3394623c0-0.928833-0.477623-1.3932648-1.432869-1.3932648
		H106.5166626z M95.4985046,192.9258423v11.1767273h1.5122986c0.3819351,0.0057983,0.7483063-0.1456909,1.0071411-0.4164429
		c0.2676544-0.2615356,0.4152908-0.6156158,0.4098434-0.9829407v-8.3963318
		c0.006813-0.3696594-0.1435699-0.7259064-0.4161987-0.9859924c-0.2592697-0.2683563-0.6235275-0.4194641-1.0039673-0.4164581
		L95.4985046,192.9258423z M72.6551895,200.4433441h1.8586044l-0.9054718-6.3140869L72.6551895,200.4433441z
		 M134.360733,192.9044037v11.1767273h1.5186462c0.3819427,0.0058136,0.7483063-0.1456757,1.0071411-0.4164429
		c0.2610321-0.2567596,0.4070587-0.6020203,0.4066772-0.9615021v-8.3963318
		c0.0059814-0.3701019-0.1455688-0.7264252-0.4193878-0.9859924c-0.2570038-0.2660065-0.6173096-0.4168854-0.9944305-0.4164581
		H134.360733z M69.0587158,206.478775h2.6115723l0.6100006-3.6745453h2.6179276l0.5877686,3.6745453h2.6369858
		l-2.7894897-16.0240631h-3.4503174L69.0587158,206.478775z M104.0067596,206.478775h2.5067368v-6.0354309h1.6711502
		l1.5186539,6.0354309h2.7132416l-1.8586121-6.9938812c0.8649216-0.7223358,1.3554459-1.7754364,1.3407364-2.8783875v-2.3241425
		c0-1.1595154-0.2869949-2.062851-0.8609924-2.7099762c-0.65448-0.7451172-1.680687-1.1176758-3.0786057-1.1176758h-3.9523087
		V206.478775z M126.1733475,206.478775h2.5067368v-16.0240631h-2.5067368V206.478775z M87.3047714,201.2211151l-3.326416-10.7664032
		h-2.8149033v16.0363159h2.5067291v-10.2795258l3.450325,10.2672729h2.6910019v-16.0240631h-2.5067368V201.2211151z
		 M92.9886017,206.478775h3.9395905c1.0510559,0.0147247,2.0608673-0.3936768,2.7863083-1.1268616
		c0.7530289-0.7131348,1.1698685-1.6925964,1.1532898-2.7099762v-8.3748779
		c0.0151367-1.0123138-0.3991318-1.9867249-1.1469269-2.6977386c-0.7289352-0.7305603-1.7412567-1.1345978-2.7926712-1.1146088
		h-3.9395905V206.478775z M131.8540039,206.478775h3.9396057c1.0510559,0.0147247,2.0608521-0.3936768,2.7863007-1.1268616
		c0.7530365-0.7131348,1.1698761-1.6925964,1.1532898-2.7099762v-8.3748779
		c0.0151367-1.0123138-0.3991394-1.9867249-1.1469269-2.6977386c-0.728714-0.7308807-1.7411804-1.1349792-2.7926636-1.1146088
		h-3.9396057V206.478775z M116.2290573,205.5601349c0.7347107,0.7346039,1.7532501,1.1416931,2.8117218,1.1238098
		c2.1950836,0.0033722,3.9773865-1.7089386,3.980896-3.824585c0.0000153-0.0040894,0.0000153-0.0081635,0-0.0122528v-8.7576599
		c0.0877609-2.1139526-1.6191559-3.8962097-3.8124847-3.9807739c-2.1933136-0.0845795-4.0424957,1.5605469-4.130249,3.6744995
		c-0.0042343,0.1020508-0.0042343,0.2042236,0,0.3062744v8.7454071c-0.0169525,1.0174561,0.3999405,1.9970398,1.1532898,2.7099762
		L116.2290573,205.5601349z M143.5044098,187.9590912c1.2791443,0,2.3161011,0.9994202,2.3161011,2.2322845l0,0v16.5354309
		c0,1.2328491-1.0369568,2.2322845-2.3161011,2.2322845l0,0H65.3161011c-1.2791519,0-2.3161011-0.9994354-2.3161011-2.2322845
		v-16.5354309c0-1.2328491,1.0369492-2.2322845,2.3161011-2.2322845H143.5044098z"/>
	<path fill="#FFFFFF" d="M154.7513275,200.2963562h1.855423l-0.9277191-6.3140869L154.7513275,200.2963562z M157.4169159,190.310791
		l2.7863007,16.0179443h-2.6369781l-0.5877686-3.6745453h-2.6179199l-0.6100159,3.6745453h-2.6210938l2.8244324-16.0179443
		H157.4169159z M166.8846436,190.310791v12.3617706c0.0035248,0.7593231-0.6322937,1.3776245-1.4201202,1.381012
		c-0.0042572,0.0000305-0.0084991,0.0000305-0.0127411,0c-0.3824463,0.0057373-0.7507629-0.1391296-1.0198517-0.401123
		c-0.2772369-0.2540131-0.4315948-0.6082001-0.4257202-0.9768219V190.310791h-2.4527283v12.392395
		c-0.0070648,2.0970306,1.7510223,3.8025208,3.9267883,3.8093262c0.0127411,0.0000458,0.0254974,0.0000305,0.0382385-0.0000458
		c1.0532227,0.0166931,2.068222-0.3801422,2.8117218-1.0993042c0.7669525-0.7052155,1.1912079-1.6885529,1.1691742-2.7099762
		v-12.392395H166.8846436z M171.1260681,190.310791v2.4282684h2.6655884v13.5896759h2.5067444v-13.5896759h2.6528625v-2.4282684
		H171.1260681z M186.1251526,190.310791v6.8009644h-3.0246124v-6.8009644h-2.5067291v16.0179443h2.5067291v-6.7887115h3.0246124
		v6.7887115h2.4940033V190.310791H186.1251526z M193.3530426,203.6371307
		c0.2688751,0.2622986,0.6373291,0.4072266,1.0198517,0.4011383c0.7878418,0.0033875,1.4293671-0.6094055,1.4328766-1.3687439
		c0.0000153-0.0040894,0.0000153-0.0081787,0-0.0122681v-8.7668457c0.0035095-0.7593231-0.632309-1.3776245-1.4201355-1.381012
		c-0.0042419-0.0000153-0.0084991-0.0000153-0.0127411,0c-0.3815155-0.0073547-0.7497101,0.1352539-1.0198517,0.3950043
		c-0.2772369,0.2540131-0.4316254,0.6082001-0.4257507,0.9768219v8.7790833
		C192.9214172,203.0289459,193.0758057,203.3831329,193.3530426,203.6371307z M191.6405792,191.2233124
		c1.5524597-1.4933014,4.0669861-1.4908905,5.6163635,0.0053864c0.744812,0.7192841,1.162262,1.6945038,1.1603851,2.7107086
		v8.7454071c0,2.1139526-1.7780457,3.827652-3.9713745,3.827652s-3.9713593-1.7136993-3.9713593-3.827652v-8.7423401
		c-0.02034-1.0222931,0.4021759-2.0065155,1.1659851-2.7161102V191.2233124z M202.7604065,197.9017792h1.5122986
		c0.3847961,0.0098419,0.7561188-0.1368561,1.0230255-0.4041901c0.2718201-0.2593384,0.4221497-0.6143341,0.4161987-0.9829407
		v-2.342514c0-0.9288483-0.4776306-1.3932648-1.4328766-1.3932648h-1.5122986L202.7604065,197.9017792z M204.2059937,190.3077393
		c1.3979034,0,2.4230499,0.3705139,3.0754242,1.1115417c0.5740051,0.6471252,0.8609924,1.5504608,0.8609924,2.7099762v2.3272095
		c0.0183258,1.101059-0.4674683,2.154007-1.3280182,2.8783875l1.855423,6.9938812h-2.7100677l-1.5186615-6.0323792h-1.6711578
		v6.0323792h-2.5067291V190.310791L204.2059937,190.3077393z M210.436264,206.3256683h2.5067291V190.310791h-2.4971924
		L210.436264,206.3256683z M214.585556,190.3077393v2.4282532h2.6655884v13.5896759h2.50354v-13.5866089h2.6528778v-2.4282684
		L214.585556,190.3077393z M230.220047,190.3077393l-1.8427124,5.7537079l-1.8554382-5.7537079h-2.7577209l3.3613739,9.3088379
		v6.7121582h2.5067444v-6.7121582L233,190.2985535L230.220047,190.3077393z"/>
	<path fill="#FFFFFF" d="M38.0732765,196.6668701c-0.5498428,0.2468414-1.1581154,0.3337402-1.755085,0.2507172
		c-1.4672127-0.2507172-3.6711273-3.5101624-3.3430176-5.2621613c0.2321548-1.2381592,2.4453545-1.2381592,2.4453545-1.2381592
		c-1.1868668-1.8438873-2.8868027-3.3006744-4.8907127-4.1911469l0.8667088-3.3430176l-0.2383423-0.1516724l-1.7519913,3.0489502
		c-1.5698929-0.5307312-3.2218971-0.7770691-4.878334-0.727417c-0.9379425,0.018692-1.8714733,0.1338348-2.7858486,0.3435974
		l-3.141819-3.9311523l0,0l-0.2476311,0.2414398l1.8417549,4.1478271c-5.0795307,1.878891-7.9056206,6.76651-7.9180021,11.7160339
		c9.9052439-1.8757935,23.3423271,1.3279266,26.0012665,2.822998
		C38.417141,199.1487122,38.3480949,197.8891449,38.0732765,196.6668701z M24.8807316,195.9611206
		c-3.646368-0.4240723-4.0518646-2.7487183-4.0240059-3.9156647c0.0619068-2.8972931,1.7736588-3.1975403,3.6277962-3.2006378
		c2.3308277,0,5.5221748,0.585022,6.3672142,2.2720184C31.7401142,192.9028778,27.6511059,196.2861328,24.8807316,195.9611206z"/>
	<path fill="#FFFFFF" d="M38.0732765,196.6668701c-0.5498428,0.2468414-1.1581154,0.3337402-1.755085,0.2507172
		c-1.4672127-0.2507172-3.6711273-3.5101624-3.3430176-5.2621613c0.2321548-1.2381592,2.4453545-1.2381592,2.4453545-1.2381592
		c-1.1868668-1.8438873-2.8868027-3.3006744-4.8907127-4.1911469l0.8667088-3.3430176l-0.2383423-0.1516724l-1.7519913,3.0489502
		c-1.5698929-0.5307312-3.2218971-0.7770691-4.878334-0.727417c-0.9379425,0.018692-1.8714733,0.1338348-2.7858486,0.3435974
		l-3.141819-3.9311523l0,0l-0.2476311,0.2414398l1.8417549,4.1478271c-5.0795307,1.878891-7.9056206,6.76651-7.9180021,11.7160339
		c9.9052439-1.8757935,23.3423271,1.3279266,26.0012665,2.822998
		C38.417141,199.1487122,38.3480949,197.8891449,38.0732765,196.6668701z M24.8807316,195.9611206
		c-3.646368-0.4240723-4.0518646-2.7487183-4.0240059-3.9156647c0.0619068-2.8972931,1.7736588-3.1975403,3.6277962-3.2006378
		c2.3308277,0,5.5221748,0.585022,6.3672142,2.2720184C31.7401142,192.9028778,27.6511059,196.2861328,24.8807316,195.9611206z"/>
	<path fill="#FFFFFF" d="M38.0732765,196.6668701c-0.5498428,0.2468414-1.1581154,0.3337402-1.755085,0.2507172
		c-1.4672127-0.2507172-3.6711273-3.5101624-3.3430176-5.2621613c0.2321548-1.2381592,2.4453545-1.2381592,2.4453545-1.2381592
		c-1.1868668-1.8438873-2.8868027-3.3006744-4.8907127-4.1911469l0.8667088-3.3430176l-0.2383423-0.1516724l-1.7519913,3.0489502
		c-1.5698929-0.5307312-3.2218971-0.7770691-4.878334-0.727417c-0.9379425,0.018692-1.8714733,0.1338348-2.7858486,0.3435974
		l-3.141819-3.9311523l0,0l-0.2476311,0.2414398l1.8417549,4.1478271c-5.0795307,1.878891-7.9056206,6.76651-7.9180021,11.7160339
		c9.9052439-1.8757935,23.3423271,1.3279266,26.0012665,2.822998
		C38.417141,199.1487122,38.3480949,197.8891449,38.0732765,196.6668701z M24.8807316,195.9611206
		c-3.646368-0.4240723-4.0518646-2.7487183-4.0240059-3.9156647c0.0619068-2.8972931,1.7736588-3.1975403,3.6277962-3.2006378
		c2.3308277,0,5.5221748,0.585022,6.3672142,2.2720184C31.7401142,192.9028778,27.6511059,196.2861328,24.8807316,195.9611206z"/>
	<path fill="#FFFFFF" d="M24.5,222.9590912c-13.5309753,0-24.5-10.9690247-24.5-24.5s10.9690247-24.5,24.5-24.5
		s24.5,10.9690247,24.5,24.5c0,0.0010376,0,0.0020599,0,0.0030975C48.984642,211.9862976,38.0241089,222.9454498,24.5,222.9590912z
		 M14.0437784,218.0993347c0.4085913,0.2197723,0.8233728,0.424057,1.2381554,0.6190796l0.0897665,0.043335l0.2012005,0.0897675
		l0.1981049,0.0866699l0.1733418,0.0742798l0.0959587-0.0216675c2.3866825-0.5098267,4.8025951-0.8716431,7.233923-1.0833893
		l0.4952621-0.0402374c1.6374607-0.1331024,3.3058739-0.2042999,4.9526215-0.2104797h0.4890709
		c1.129818,0,2.2596359,0.0309601,3.3615932,0.0866699c0.3559685,0,0.7119408,0.0371399,1.071003,0.0588074
		c0.5200272,0.0340576,1.043148,0.0711975,1.5662651,0.11763h0.0742912l0.0711937-0.0278625
		c0.0269089-0.0111542,0.0527992-0.0246124,0.0773849-0.0402374c0.1609573-0.0897675,0.3095398-0.18573,0.4797859-0.2785797
		c0.1702461-0.092865,0.3497772-0.2104797,0.5200272-0.3095398c0.1702461-0.0990601,0.3807335-0.2476349,0.5695496-0.3745422
		l0.1331024-0.0897675l0.7150307-0.4766846l-0.8543282-0.0897675c-1.2381554-0.1300049-2.4948807-0.2321472-3.7454185-0.3095398
		c-1.2505379-0.0773773-2.5444088-0.1114349-3.8166142-0.1145325h-0.4921684c-1.6838913,0-3.364687,0.0681-5.0021477,0.1950226
		c-0.4766903,0.0340424-0.9564743,0.0742798-1.4300709,0.1207123c-0.1176243,0-0.2383442,0.0216675-0.3559704,0.0371399
		c-2.5837059,0.2619629-5.1478653,0.6900177-7.6765623,1.2814941c0.1300058-0.7181244-0.0247641-1.8572388-1.0586233-3.6804199
		l2.2534418-0.6190796l0.1176252-0.0619049c0.5738029-0.323288,1.0513268-0.793335,1.3836384-1.361969
		c0.4828815-0.7800293,1.0029068-2.1667633,0.7367039-4.2592468c-0.2042961-1.6529388-0.6655102-2.9530029-1.3681622-3.8661499
		c-0.5788393-0.8324127-1.5157061-1.3438416-2.5289316-1.3805389c-0.1034393,0.0005646-0.2067728,0.0067596-0.3095388,0.0185699
		c-0.1650867,0.0206299-0.3291416,0.043335-0.4921665,0.0681c0-0.0557098,0-0.1145325,0-0.1702423
		c2.3184462-0.5757446,5.4540749-0.8914795,8.8620968-0.8914795c5.7171841,0,11.4746075,0.869812,15.8298168,2.3865509
		c0.6678963,3.5728455,1.1226883,7.182251,1.3619728,10.8090973l0.043335,0.6500244l0.4766884-0.4457245
		c0.349781-0.328125,0.6933708-0.6748047,1.018383-1.0276794l0.0897636-0.0990448v-0.1331024
		c-0.1857262-2.4113159-0.4550247-4.7792816-0.7986107-7.0420074c1.1756744,0.4755707,2.2856293,1.0997314,3.3027763,1.8572235
		c0.1826286,0.1331024,0.3559685,0.2631073,0.5169296,0.3931122l0.3095398,0.23526l0.1702461-0.3404999
		c1.5640602-3.1071625,2.3682098-6.5412292,2.3463097-10.0197754c0.0089645-12.2881317-9.9452744-22.2569122-22.2334118-22.2658691
		c-12.2881393-0.0089722-22.2569122,9.9452667-22.2658768,22.2333984c-0.0024252,3.324295,0.7400811,6.6068726,2.1729491,9.6065063
		l0.167151,0.3528748l0.3095388-0.2445374c1.6900821-1.3588715,5.110487-3.7144623,9.013772-4.178772h0.1083384
		c0.8109913,0,1.8758059,0.9719543,2.2162981,3.7144623c0.3466835,2.7858582-0.9595699,3.6773224-1.1607714,3.7980499
		l-2.996336,0.8202667c-0.5262165-0.4147797-1.5476942-1.1576691-1.9810486-1.1576691h-0.0433359l-0.5850277,0.04953
		l0.3714466,0.4550171c3.3027802,4.0487671,2.9870491,5.4262238,2.9715738,5.4819336l-0.0588121,0.2228699l0.1981049,0.1207275
		c0.3373976,0.2042999,0.6469364,0.3838196,0.9440928,0.5447845l0.03405,0.0185699l0.0835752,0.0402374L14.0437784,218.0993347z"/>
</g>
</svg>
